<?xml version="1.0" encoding="UTF-8" standalone="no"?>
<!-- Created with Inkscape (http://www.inkscape.org/) -->

<svg
   xmlns:dc="http://purl.org/dc/elements/1.1/"
   xmlns:cc="http://creativecommons.org/ns#"
   xmlns:rdf="http://www.w3.org/1999/02/22-rdf-syntax-ns#"
   xmlns:svg="http://www.w3.org/2000/svg"
   xmlns="http://www.w3.org/2000/svg"
   xmlns:sodipodi="http://sodipodi.sourceforge.net/DTD/sodipodi-0.dtd"
   xmlns:inkscape="http://www.inkscape.org/namespaces/inkscape"
   width="210mm"
   height="297mm"
   viewBox="0 0 210 297"
   version="1.1"
   id="svg8"
   inkscape:version="0.92.1 r15371"
   sodipodi:docname="twitten.svg">
  <defs
     id="defs2" />
  <sodipodi:namedview
     id="base"
     pagecolor="#ffffff"
     bordercolor="#666666"
     borderopacity="1.0"
     inkscape:pageopacity="0.0"
     inkscape:pageshadow="2"
     inkscape:zoom="0.35"
     inkscape:cx="257.84838"
     inkscape:cy="635.05609"
     inkscape:document-units="mm"
     inkscape:current-layer="layer1"
     showgrid="false"
     inkscape:window-width="1366"
     inkscape:window-height="744"
     inkscape:window-x="0"
     inkscape:window-y="0"
     inkscape:window-maximized="1" />
  <metadata
     id="metadata5">
    <rdf:RDF>
      <cc:Work
         rdf:about="">
        <dc:format>image/svg+xml</dc:format>
        <dc:type
           rdf:resource="http://purl.org/dc/dcmitype/StillImage" />
        <dc:title></dc:title>
      </cc:Work>
    </rdf:RDF>
  </metadata>
  <g
     inkscape:label="Layer 1"
     inkscape:groupmode="layer"
     id="layer1">
    <ellipse
       style="opacity:1;fill:#000080;fill-opacity:1;stroke:none;stroke-width:2.05535626;stroke-linecap:square;stroke-linejoin:round;stroke-miterlimit:4;stroke-dasharray:none;stroke-dashoffset:0;stroke-opacity:1"
       id="path4485"
       cx="141.74107"
       cy="108.67336"
       rx="16.252975"
       ry="19.560268" />
    <rect
       style="opacity:1;fill:#000080;fill-opacity:1;stroke:none;stroke-width:1.72380114;stroke-linecap:square;stroke-linejoin:round;stroke-miterlimit:4;stroke-dasharray:none;stroke-dashoffset:0;stroke-opacity:1"
       id="rect4489"
       width="11.287628"
       height="11.287628"
       x="-1.257329"
       y="176.47754"
       transform="matrix(0.82040412,-0.57178412,0.82040412,0.57178412,0,0)" />
    <rect
       style="opacity:1;fill:#000080;fill-opacity:1;stroke:none;stroke-width:1.72380114;stroke-linecap:square;stroke-linejoin:round;stroke-miterlimit:4;stroke-dasharray:none;stroke-dashoffset:0;stroke-opacity:1"
       id="rect4489-3"
       width="11.287628"
       height="11.287628"
       x="-6.7850537"
       y="182.16817"
       transform="matrix(0.82040413,-0.57178411,0.82040413,0.57178411,0,0)" />
    <ellipse
       style="opacity:1;fill:#ffffff;fill-opacity:1;stroke:none;stroke-width:2;stroke-linecap:square;stroke-linejoin:round;stroke-miterlimit:4;stroke-dasharray:none;stroke-dashoffset:0;stroke-opacity:1"
       id="path4506"
       cx="147.80005"
       cy="98.933472"
       rx="5.3453946"
       ry="2.6528888" />
    <ellipse
       style="opacity:1;fill:#000080;fill-opacity:1;stroke:none;stroke-width:2;stroke-linecap:square;stroke-linejoin:round;stroke-miterlimit:4;stroke-dasharray:none;stroke-dashoffset:0;stroke-opacity:1"
       id="path4508"
       cx="159.09082"
       cy="78.09153"
       rx="11.626225"
       ry="21.381561"
       transform="rotate(19.144838)" />
    <path
       style="fill:#000080;stroke:none;stroke-width:0.26458332px;stroke-linecap:butt;stroke-linejoin:miter;stroke-opacity:1"
       d="m 123.74579,111.78221 c -8.60394,-4.27962 -18.61882,-3.68443 -27.657791,-6.35479 -9.295302,-2.36124 -15.058227,-19.391946 -15.058227,-19.391946 0,0 -1.310335,17.612636 4.571344,23.016656 7.343659,8.14797 -17.154894,3.58617 -15.139341,8.6729 4.171069,-0.98184 21.235711,-1.32675 12.884704,3.90399 -2.806183,2.19576 -10.139914,11.98345 -3.932805,6.33297 5.517547,-2.38454 13.193073,-10.60931 19.855085,-9.61872 -5.599812,3.08379 -17.97987,17.68086 -7.994876,10.40847 5.689173,-5.66365 21.410917,-7.6037 28.427627,-9.81893 1.95477,-1.99147 2.84212,-4.69894 4.04428,-7.1506 z"
       id="path4510"
       inkscape:connector-curvature="0"
       sodipodi:nodetypes="ccccccccccc" />
    <path
       style="fill:#000080;stroke:none;stroke-width:0.26458332px;stroke-linecap:butt;stroke-linejoin:miter;stroke-opacity:1"
       d="m 119.14963,138.24612 c -5.26825,-8.06284 -16.32663,-2.40794 -24.182134,-3.99243 -6.614834,1.02861 -7.065122,-1.63181 -6.237466,7.6441 7.997909,-4.64692 3.101836,-4.24186 11.97535,-1.85332 5.46583,1.45223 13.27535,-1.87952 16.71586,4.19101"
       id="path4518"
       inkscape:connector-curvature="0"
       sodipodi:nodetypes="ccccc" />
    <path
       style="fill:#000080;stroke:none;stroke-width:0.26458332px;stroke-linecap:butt;stroke-linejoin:miter;stroke-opacity:1"
       d="m 119.14963,138.24612 c -9.40189,-2.09007 -13.36556,9.68086 -20.093851,14.03398 -4.015213,5.3565 -6.195723,3.76718 0.87571,9.82707 2.477601,-8.91189 -0.74319,-5.20216 7.275241,-9.69094 4.92581,-2.77863 8.18724,-10.61775 14.88955,-8.67675"
       id="path4518-6"
       inkscape:connector-curvature="0"
       sodipodi:nodetypes="ccccc"
       inkscape:transform-center-x="-6.8524889"
       inkscape:transform-center-y="-33.788584" />
    <ellipse
       style="opacity:1;fill:#000080;fill-opacity:1;stroke:none;stroke-width:2.05535626;stroke-linecap:square;stroke-linejoin:round;stroke-miterlimit:4;stroke-dasharray:none;stroke-dashoffset:0;stroke-opacity:1"
       id="path4485-7"
       cx="233.22726"
       cy="134.57773"
       rx="16.252975"
       ry="19.560268" />
    <rect
       style="opacity:1;fill:#000080;fill-opacity:1;stroke:none;stroke-width:1.72380114;stroke-linecap:square;stroke-linejoin:round;stroke-miterlimit:4;stroke-dasharray:none;stroke-dashoffset:0;stroke-opacity:1"
       id="rect4489-5"
       width="11.287628"
       height="11.287628"
       x="31.847229"
       y="254.88655"
       transform="matrix(0.82040413,-0.57178411,0.82040413,0.57178411,0,0)" />
    <rect
       style="opacity:1;fill:#000080;fill-opacity:1;stroke:none;stroke-width:1.72380114;stroke-linecap:square;stroke-linejoin:round;stroke-miterlimit:4;stroke-dasharray:none;stroke-dashoffset:0;stroke-opacity:1"
       id="rect4489-3-3"
       width="11.287628"
       height="11.287628"
       x="26.319496"
       y="260.57715"
       transform="matrix(0.82040413,-0.57178411,0.82040413,0.57178411,0,0)" />
    <ellipse
       style="opacity:1;fill:#ffffff;fill-opacity:1;stroke:none;stroke-width:2;stroke-linecap:square;stroke-linejoin:round;stroke-miterlimit:4;stroke-dasharray:none;stroke-dashoffset:0;stroke-opacity:1"
       id="path4506-5"
       cx="239.28624"
       cy="124.83784"
       rx="5.3453946"
       ry="2.6528888" />
    <ellipse
       style="opacity:1;fill:#000080;fill-opacity:1;stroke:none;stroke-width:1.99999988;stroke-linecap:square;stroke-linejoin:round;stroke-miterlimit:4;stroke-dasharray:none;stroke-dashoffset:0;stroke-opacity:1"
       id="path4508-6"
       cx="254.01266"
       cy="72.559624"
       rx="11.626225"
       ry="21.381561"
       transform="rotate(19.144838)" />
    <path
       style="fill:#000080;stroke:none;stroke-width:0.26458332px;stroke-linecap:butt;stroke-linejoin:miter;stroke-opacity:1"
       d="m 215.23198,137.68657 c -8.60394,-4.27962 -18.61882,-3.68443 -27.6578,-6.35479 -9.2953,-2.36124 -15.05822,-19.39194 -15.05822,-19.39194 0,0 -1.31034,17.61263 4.57134,23.01665 7.34366,8.14797 -17.15489,3.58617 -15.13934,8.6729 4.17107,-0.98184 21.23571,-1.32675 12.8847,3.90399 -2.80618,2.19576 -10.13991,11.98345 -3.9328,6.33297 5.51755,-2.38454 13.19307,-10.60931 19.85508,-9.61872 -5.59981,3.08379 -17.97987,17.68086 -7.99487,10.40847 5.68917,-5.66365 21.41092,-7.6037 28.42763,-9.81893 1.95477,-1.99147 2.84212,-4.69894 4.04428,-7.1506 z"
       id="path4510-2"
       inkscape:connector-curvature="0"
       sodipodi:nodetypes="ccccccccccc" />
    <path
       style="fill:#000080;stroke:none;stroke-width:0.26458332px;stroke-linecap:butt;stroke-linejoin:miter;stroke-opacity:1"
       d="m 210.63582,164.15048 c -5.26825,-8.06284 -16.32663,-2.40794 -24.18214,-3.99243 -6.61483,1.02861 -7.06512,-1.63181 -6.23746,7.6441 7.9979,-4.64692 3.10183,-4.24186 11.97535,-1.85332 5.46583,1.45223 13.27535,-1.87952 16.71586,4.19101"
       id="path4518-9"
       inkscape:connector-curvature="0"
       sodipodi:nodetypes="ccccc" />
    <path
       style="fill:#000080;stroke:none;stroke-width:0.26458332px;stroke-linecap:butt;stroke-linejoin:miter;stroke-opacity:1"
       d="m 210.63582,164.15048 c -9.40189,-2.09007 -13.36556,9.68086 -20.09385,14.03398 -4.01522,5.3565 -6.19573,3.76718 0.87571,9.82707 2.4776,-8.91189 -0.7432,-5.20216 7.27524,-9.69094 4.92581,-2.77863 8.18724,-10.61775 14.88955,-8.67675"
       id="path4518-6-1"
       inkscape:connector-curvature="0"
       sodipodi:nodetypes="ccccc"
       inkscape:transform-center-x="-6.8524889"
       inkscape:transform-center-y="-33.788584" />
    <path
       style="opacity:1;fill:#55acee;fill-opacity:1;stroke:none;stroke-width:2.85714293;stroke-linecap:square;stroke-linejoin:round;stroke-miterlimit:4;stroke-dasharray:none;stroke-dashoffset:0;stroke-opacity:1"
       d="m 45.399735,264.24213 c -1.694371,-1.71222 -2.145329,-2.39913 -1.95947,-2.98474 0.132778,-0.41836 2.319131,-2.86834 4.858554,-5.44443 2.539426,-2.57609 5.842997,-6.06021 7.341269,-7.74249 l 2.724134,-3.05869 -4.614013,-0.17573 c -3.615221,-0.13769 -5.357592,-0.40353 -8.049051,-1.22807 l -3.435037,-1.05233 -2.582479,1.73245 c -1.420363,0.95285 -2.723592,1.64524 -2.896063,1.53864 -0.563168,-0.34806 -0.369829,-5.6796 0.223827,-6.17229 0.353372,-0.29327 2.78039,-0.48828 7.087055,-0.56944 3.602302,-0.0679 8.537374,-0.25362 10.966828,-0.41275 l 4.417192,-0.28932 0.247335,-2.49481 c 0.288687,-2.91186 1.003671,-6.28308 1.879918,-8.864 0.341524,-1.00594 0.527269,-1.92266 0.412765,-2.03716 -0.283493,-0.28349 -8.286143,1.61533 -12.697316,3.01275 -4.430646,1.40359 -7.156469,2.75659 -10.567416,5.2453 -1.448499,1.05686 -2.825478,1.85762 -3.059957,1.77946 -0.976346,-0.32545 5.206265,-7.23166 10.036599,-11.21125 l 1.511906,-1.24562 -2.035355,0.20391 c -3.32427,0.33305 -6.944342,2.32151 -18.469854,10.14528 -0.88352,0.59975 -1.606399,0.96406 -1.606399,0.80958 0,-0.65377 4.421868,-5.98091 6.287667,-7.57492 2.44311,-2.08721 2.58368,-2.95859 0.610399,-3.78382 -1.749827,-0.73178 -8.1071,-1.06473 -11.339285,-0.59387 -1.869807,0.27238 -2.362353,0.24099 -2.362353,-0.15056 0,-0.96893 2.312905,-1.66101 7.450976,-2.22954 6.148287,-0.68031 7.693512,-1.0483 8.597786,-2.04751 0.86341,-0.95406 0.55943,-2.23179 -0.93621,-3.93522 -2.775415,-3.16103 -4.073323,-7.99187 -4.380237,-16.30333 l -0.209363,-5.66965 2.073305,4.22032 c 2.487284,5.063 4.524605,8.13985 7.085366,10.70061 3.267681,3.26768 5.866109,4.16505 16.997503,5.87013 3.587541,0.54953 8.070783,1.39112 9.962758,1.8702 l 3.439962,0.87105 1.607081,-1.47472 c 0.883899,-0.81109 2.029175,-1.66703 2.545059,-1.90208 0.656212,-0.29899 1.007801,-0.83579 1.17043,-1.78697 1.128402,-6.59991 4.802923,-12.04721 9.849715,-14.60173 2.01572,-1.0203 2.554086,-1.12096 5.994381,-1.12089 3.40826,7e-5 4.000389,0.10824 6.024505,1.10065 1.328478,0.65134 3.186239,2.05608 4.551288,3.44144 1.2686,1.28747 3.95791,3.48422 5.97624,4.88167 2.01833,1.39744 3.66969,2.58444 3.66969,2.63777 0,0.0533 -0.93549,0.74126 -2.07887,1.52873 -1.14338,0.78748 -2.07887,1.54448 -2.07887,1.68223 0,0.13775 0.46775,0.53477 1.03944,0.88227 0.57169,0.3475 1.54022,1.04085 2.15231,1.54078 l 1.11286,0.90896 -2.11827,1.40646 c -2.06887,1.37364 -2.13232,1.46861 -2.72,4.07096 -1.30808,5.79237 -4.94388,10.77167 -9.482704,12.98679 -2.022245,0.98694 -2.656745,1.1068 -5.858632,1.1068 -1.974924,0 -4.034854,-0.14006 -4.577614,-0.31126 -0.935818,-0.29516 -1.020811,-0.20741 -1.643698,1.69696 -3.191611,9.75778 -9.936935,17.1092 -15.701306,17.11211 -1.36891,8e-4 -2.490267,-0.24412 -3.283498,-0.71685 l -1.204629,-0.71792 -3.605194,3.44659 c -2.745303,2.62453 -4.414009,3.86433 -6.996242,5.19799 -3.705302,1.91373 -3.691176,1.89415 -4.567171,6.32587 -0.236279,1.19533 -0.465387,2.17337 -0.509128,2.17337 -0.04374,0 -1.06993,-1.00084 -2.280419,-2.22412 z m 54.011176,-58.84622 c 1.577379,-0.74852 2.089449,-2.1255 1.168759,-3.14285 -1.433749,-1.58428 -5.797679,-2.01239 -8.412157,-0.82526 -1.970532,0.89474 -2.408814,2.02175 -1.261271,3.24325 1.609759,1.7135 5.688639,2.06115 8.504669,0.72486 z"
       id="path4796"
       inkscape:connector-curvature="0"
       inkscape:export-filename="/home/michaelb/projects/kc-backend/content/7.2-models/activities/1_twitten/twitten/static/the_bird.png"
       inkscape:export-xdpi="388.14001"
       inkscape:export-ydpi="388.14001" />
  </g>
</svg>
